<?xml version="1.0" encoding="UTF-8"?>
<svg id="Capa_2" data-name="Capa 2" xmlns="http://www.w3.org/2000/svg" viewBox="0 0 277.75 304.78">
  <defs>
    <style>
      .cls-1 {
        fill: #171327;
      }

      .cls-2 {
        fill: #e4261c;
      }

      .cls-3 {
        fill: #f5bc16;
      }
    </style>
  </defs>
  <path class="cls-1" d="M133.11,237.27c6.97-8.96,11.28-9.68,12.1-22.72.53-8.5-.65-11.78-3.94-19.26-6-13.64-16.67-34.17-29.21-42.45-10.54-6.97-25.24-8.7-33.18-19.31-6.57-8.77-9.11-15.66-7-26.62,1.12-5.85,8.83-30.85,12.45-34.23,3.21-3,4.76-1.76,8.16-1.69,5.26.1,7.3,1,11.59,1.53,4.47.56,9.8-.72,14.3.33,8.99,2.11,22.46,7.94,31.36,11.53,14.55,5.86,27.87,13.55,42.07,19.5,9.01,3.78,15.17,4.16,22.78,11.03,6.86,6.19,10.81,11.05,6.41,20.51-1.28,2.75-4.11,5.41-5.15,7.97-3.17,7.78-2.27,12.1-7.84,20.42-5.48,8.17-12.59,9.75-18.2,15.86-3.12,3.4-3.92,9.44-6.15,13.78-10.38,20.21-33.71,27.69-46.92,45.93,0,0-2.77,1.27-4.15,0-1.38-1.27.53-2.1.53-2.1ZM123.4,92.98c-4.57.25-10.54,2.56-13.01,5.5-.71.84-1.89,1.17-2.75,2.3-4.04,5.36.05,12.24,3.04,17.09,7.1,11.52,14.1,12.6,26.98,9.9,7.08-1.49,15.33-3.89,16.41-13.42.28-2.46-4.31-12.92-8.83-16.4-5.64-4.33-14.14-5.39-21.83-4.97Z"/>
  <path class="cls-1" d="M48.32,102.61c1.67-.31,10.64,2.26,12.2,3.22,1.77,1.09,2.36,3.56,2.55,5.52,1.45,14.48-5.45,24.02-20.7,19.7-3.59-1.02-9.09-8.15-9.09-11.63,0-2.22,6.7-11.53,8.64-13.09.83-.66,5.58-3.57,6.4-3.73Z"/>
  <path class="cls-3" d="M102.58,171.8c3.32-.38,15.24,6.95,16.71,9.81,1.54,2.99.17,6.31-1.74,8.73-1.79,2.27-4.62,3.5-7.56,3.58-2.38.06-12.52-2.76-14.74-3.93-2.7-1.43-4.04-8.7-2.9-11.21.8-1.76,8.19-6.75,10.22-6.98Z"/>
  <path class="cls-1" d="M171.19,61.86c.57-.09,6.06.32,6.91.45,2.84.43,4.95,5.96,5.23,8.43.35,3-2.29,7.43-5.31,8.09-2.34.51-10.59.94-12.78.37-5.73-1.5-5.02-9.68-1.45-13.09.8-.76,6.46-4.1,7.4-4.26Z"/>
  <path class="cls-2" d="M210.1,192.86c.79-.04,1.41-.25,2.33-.13,3.34.43,7.42,5.58,7.82,8.86,1.4,11.3-23.17,12.26-24.19,3.5-.98-8.39,6.94-11.83,14.04-12.23Z"/>
  <circle class="cls-1" cx="123.4" cy="108.77" r="8.57"/>
</svg>